<svg width="61" height="61" viewBox="0 0 61 61" fill="none" xmlns="http://www.w3.org/2000/svg">
<g id="t-logo">
<g id="T">
<path d="M34.2937 12.8313V59H22.8238V12.8313H4.99247V3.96386H52.125V12.8313H34.2937Z" fill="#FF220E"/>
<path d="M34.2937 12.8313V11.8313H33.2937V12.8313H34.2937ZM34.2937 59V60H35.2937V59H34.2937ZM22.8238 59H21.8238V60H22.8238V59ZM22.8238 12.8313H23.8238V11.8313H22.8238V12.8313ZM4.99247 12.8313H3.99247V13.8313H4.99247V12.8313ZM4.99247 3.96386V2.96386H3.99247V3.96386H4.99247ZM52.125 3.96386H53.125V2.96386H52.125V3.96386ZM52.125 12.8313V13.8313H53.125V12.8313H52.125ZM33.2937 12.8313V59H35.2937V12.8313H33.2937ZM34.2937 58H22.8238V60H34.2937V58ZM23.8238 59V12.8313H21.8238V59H23.8238ZM22.8238 11.8313H4.99247V13.8313H22.8238V11.8313ZM5.99247 12.8313V3.96386H3.99247V12.8313H5.99247ZM4.99247 4.96386H52.125V2.96386H4.99247V4.96386ZM51.125 3.96386V12.8313H53.125V3.96386H51.125ZM52.125 11.8313H34.2937V13.8313H52.125V11.8313Z" fill="#FF220E"/>
</g>
<g id="T_2">
<path d="M38.2937 10.8313V57H26.8238V10.8313H8.99247V1.96386H56.125V10.8313H38.2937Z" fill="#2D3142"/>
<path d="M38.2937 10.8313V9.83132H37.2937V10.8313H38.2937ZM38.2937 57V58H39.2937V57H38.2937ZM26.8238 57H25.8238V58H26.8238V57ZM26.8238 10.8313H27.8238V9.83132H26.8238V10.8313ZM8.99247 10.8313H7.99247V11.8313H8.99247V10.8313ZM8.99247 1.96386V0.963856H7.99247V1.96386H8.99247ZM56.125 1.96386H57.125V0.963856H56.125V1.96386ZM56.125 10.8313V11.8313H57.125V10.8313H56.125ZM37.2937 10.8313V57H39.2937V10.8313H37.2937ZM38.2937 56H26.8238V58H38.2937V56ZM27.8238 57V10.8313H25.8238V57H27.8238ZM26.8238 9.83132H8.99247V11.8313H26.8238V9.83132ZM9.99247 10.8313V1.96386H7.99247V10.8313H9.99247ZM8.99247 2.96386H56.125V0.963856H8.99247V2.96386ZM55.125 1.96386V10.8313H57.125V1.96386H55.125ZM56.125 9.83132H38.2937V11.8313H56.125V9.83132Z" fill="#2D3142"/>
</g>
</g>
</svg>
